<svg width="60" height="60" viewBox="0 0 60 60" fill="none" xmlns="http://www.w3.org/2000/svg">
<g clip-path="url(#clip0_2_281)">
<path d="M30 60C46.5685 60 60 46.5685 60 30C60 13.4315 46.5685 0 30 0C13.4315 0 0 13.4315 0 30C0 46.5685 13.4315 60 30 60Z" fill="white"/>
<path d="M12.4856 29.7399L32.6881 21.4161C34.6824 20.5491 41.4456 17.7746 41.4456 17.7746C41.4456 17.7746 44.5671 16.5609 44.3069 19.5086C44.2201 20.7224 43.5269 24.9711 42.8329 29.5661L40.6654 43.1786C40.6654 43.1786 40.4919 45.1729 39.0154 45.5196C37.5389 45.8664 35.1136 44.3059 34.6804 43.9589C34.3336 43.6989 28.1774 39.7971 25.9229 37.8896C25.3159 37.3696 24.6224 36.3289 26.0096 35.1151C29.1311 32.2539 32.8596 28.6989 35.1136 26.4446C36.1541 25.4041 37.1946 22.9764 32.8594 25.9246L20.6339 34.1616C20.6339 34.1616 19.2464 35.0286 16.6454 34.2484C14.0444 33.4681 11.0096 32.4276 11.0096 32.4276C11.0096 32.4276 8.92861 31.1271 12.4836 29.7401L12.4856 29.7399Z" fill="#293BDC"/>
</g>
<defs>
<clipPath id="clip0_2_281">
<rect width="60" height="60" fill="white"/>
</clipPath>
</defs>
</svg>
