<svg width="150" height="150" viewBox="0 0 150 150" fill="none" xmlns="http://www.w3.org/2000/svg">
<path d="M104.375 123.312H45.6247C40.9997 123.312 36.3122 120 34.7497 115.688L8.87472 43.25C5.68722 34.125 7.99972 29.9375 10.4997 28.0625C12.9997 26.1875 17.6872 25.0625 25.5622 30.6875L49.9372 48.125C50.6872 48.5625 51.3747 48.75 51.8747 48.625C52.4372 48.4375 52.8747 47.9375 53.1872 47.0625L64.1872 17.75C67.4997 9 72.3747 7.6875 74.9997 7.6875C77.6247 7.6875 82.4997 9 85.8122 17.75L96.8122 47.0625C97.1247 47.875 97.5622 48.4375 98.1247 48.625C98.6872 48.8125 99.3747 48.625 100.062 48.0625L122.937 31.75C131.312 25.75 136.187 26.9375 138.875 28.875C141.5 30.875 143.937 35.3125 140.5 45L115.25 115.688C113.687 120 109 123.312 104.375 123.312ZM16.7497 36.3125C16.8747 37.1875 17.1247 38.4375 17.7497 40.0625L43.6247 112.5C43.8747 113.125 44.9997 113.938 45.6247 113.938H104.375C105.062 113.938 106.187 113.125 106.375 112.5L131.625 41.875C132.5 39.5 132.75 37.875 132.812 36.9375C131.875 37.25 130.437 37.9375 128.375 39.4375L105.5 55.75C102.375 57.9375 98.6872 58.625 95.3747 57.625C92.0622 56.625 89.3747 54 87.9997 50.4375L76.9997 21.125C76.1872 18.9375 75.4372 17.875 74.9997 17.375C74.5622 17.875 73.8122 18.9375 72.9997 21.0625L61.9997 50.375C60.6872 53.9375 57.9997 56.5625 54.6247 57.5625C51.3122 58.5625 47.5622 57.875 44.4997 55.6875L20.1247 38.25C18.6872 37.25 17.5622 36.625 16.7497 36.3125Z" fill="#485156"/>
<path d="M109.375 142.188H40.625C38.0625 142.188 35.9375 140.062 35.9375 137.5C35.9375 134.938 38.0625 132.812 40.625 132.812H109.375C111.938 132.812 114.062 134.938 114.062 137.5C114.062 140.062 111.938 142.188 109.375 142.188Z" fill="#485156"/>
<path d="M90.625 92.1875H59.375C56.8125 92.1875 54.6875 90.0625 54.6875 87.5C54.6875 84.9375 56.8125 82.8125 59.375 82.8125H90.625C93.1875 82.8125 95.3125 84.9375 95.3125 87.5C95.3125 90.0625 93.1875 92.1875 90.625 92.1875Z" fill="#39A935"/>
</svg>
